<?xml version="1.0" encoding="UTF-8" standalone="no"?>
<svg
   xmlns:dc="http://purl.org/dc/elements/1.1/"
   xmlns:cc="http://creativecommons.org/ns#"
   xmlns:rdf="http://www.w3.org/1999/02/22-rdf-syntax-ns#"
   xmlns:svg="http://www.w3.org/2000/svg"
   xmlns="http://www.w3.org/2000/svg"
   version="1.1"
   id="svg2"
   xml:space="preserve"
   width="340.55423"
   height="37.951691"
   viewBox="0 0 340.55423 37.951691"><metadata
     id="metadata8"><rdf:RDF><cc:Work
         rdf:about=""><dc:format>image/svg+xml</dc:format><dc:type
           rdf:resource="http://purl.org/dc/dcmitype/StillImage" /><dc:title></dc:title></cc:Work></rdf:RDF></metadata><defs
     id="defs6" /><g
     id="g10"
     transform="matrix(1.3333333,0,0,-1.3333333,-236.48914,946)"><g
       aria-label="Emitter branch"
       transform="matrix(1,0,0,-1,219.977,690.999)"
       id="text14988"
       style="font-size:10.5px;line-height:1.25;font-family:serif;-inkscape-font-specification:serif;stroke-width:0.75"><path
         d="m -42.610144,-17.493017 c 0.8295,0.063 0.861,0.1575 0.861,0.9345 v 4.389 c 0,0.6195 -0.063,0.9765 -0.7455,1.029 v 0.2835 h 3.7695 c 0.2835,-0.0525 1.2915,-0.3255 1.2915,-0.3255 0,0 0.336,-1.239 0.3675,-1.4385 l -0.3885,-0.042 c -0.084,0.252 -0.462,0.903 -0.546,0.9975 -0.189,0.2205 -0.7455,0.2835 -1.2285,0.2835 -0.4935,0 -0.7245,-0.021 -0.966,-0.0735 -0.1155,-0.0315 -0.126,-0.735 -0.126,-1.1235 v -1.6485 c 0.1785,-0.0105 0.5355,-0.0105 0.8715,-0.0105 0.525,0 0.861,0.021 0.9555,0.315 0.021,0.063 0.084,0.42 0.105,0.5775 h 0.399 c -0.0105,-0.441 -0.0105,-0.8715 -0.0105,-1.3125 0,-0.315 0,-0.6405 0.0105,-0.966 h -0.399 c -0.021,0.189 -0.0945,0.5985 -0.1365,0.672 -0.0945,0.168 -0.462,0.1785 -0.924,0.1785 -0.189,0 -0.7245,0 -0.8715,-0.0105 v -2.331 c 0,-0.1785 0.3885,-0.1995 0.8925,-0.1995 0.483,0 1.218,0.0315 1.365,0.2205 0.0735,0.0945 0.1785,0.63 0.231,0.8715 h 0.378 l 0.1155,-1.2705 -1.113,-0.3465 -4.158,0.0105 z"
         style="font-style:normal;font-variant:normal;font-weight:bold;font-stretch:normal;font-size:10.5px;font-family:KpRoman;-inkscape-font-specification:'KpRoman Bold';stroke-width:0.75"
         id="path1961" /><path
         d="m -36.310152,-10.857017 c 0.525,-0.0105 1.0605,-0.021 1.5855,-0.021 0.336,0 0.672,0.0105 1.0185,0.021 v -0.357 c -0.5355,-0.0735 -0.5775,-0.0525 -0.5775,-0.7035 v -2.394 c 0.1575,-0.3045 0.525,-0.5565 0.8715,-0.5565 0.504,0 0.8085,0.3255 0.8085,1.0395 v 1.911 c 0,0.693 -0.0315,0.5775 -0.273,0.6825 v 0.3675 c 0.3255,-0.0105 0.5985,-0.0105 0.945,-0.0105 0.42,0 0.735,0.0105 1.26,0.021 v -0.357 c -0.5565,-0.0735 -0.651,0 -0.651,-0.7035 l -0.0105,-2.394 c 0.189,-0.3255 0.546,-0.5565 0.8715,-0.5565 0.504,0 0.8085,0.315 0.8085,1.0395 v 1.8795 c 0,0.3045 -0.021,0.756 -0.273,0.7875 v 0.3045 c 0,0 0.5145,-0.021 1.0395,-0.021 0.3465,0 0.903,0.0105 1.197,0.021 v -0.357 c -0.567,-0.063 -0.6825,0.0105 -0.6825,-0.7035 v -2.121 c 0,-1.134 -0.4305,-1.68 -1.449,-1.68 -0.6615,0 -1.0815,0.4515 -1.5855,0.819 -0.21,-0.5355 -0.651,-0.819 -1.323,-0.819 -0.63,0 -1.071,0.4515 -1.554,0.798 v -0.7245 l -0.0315,-0.0735 c -0.8925,0.252 -1.365,0.357 -1.953,0.4095 v 0.336 c 0.6405,0.0735 0.7035,-0.0525 0.7035,0.735 v 2.3205 c 0,0.735 -0.1575,0.651 -0.7455,0.7035 z"
         style="font-style:normal;font-variant:normal;font-weight:bold;font-stretch:normal;font-size:10.5px;font-family:KpRoman;-inkscape-font-specification:'KpRoman Bold';stroke-width:0.75"
         id="path1963" /><path
         d="m -26.88117,-10.857017 c 0.5565,-0.0105 0.945,-0.0105 1.407,-0.021 0.399,0 0.987,0.0105 1.344,0.021 v -0.357 c -0.5985,-0.0525 -0.735,0.021 -0.735,-0.7035 v -3.7065 l -0.0525,-0.0945 c -0.6615,0.147 -1.2705,0.3255 -1.9425,0.42 v 0.3255 c 0.651,0.0735 0.714,-0.042 0.714,0.7455 v 2.31 c 0,0.7245 -0.1365,0.651 -0.735,0.7035 z m 0.5355,-6.132 c 0,0.4305 0.357,0.777 0.777,0.777 0.4305,0 0.777,-0.3465 0.777,-0.7665 0,-0.4305 -0.336,-0.777 -0.7665,-0.777 -0.4305,0 -0.7875,0.336 -0.7875,0.7665 z"
         style="font-style:normal;font-variant:normal;font-weight:bold;font-stretch:normal;font-size:10.5px;font-family:KpRoman;-inkscape-font-specification:'KpRoman Bold';stroke-width:0.75"
         id="path1965" /><path
         d="m -23.405688,-15.372017 0.021,0.588 h 0.672 v 2.751 c 0,0.9345 0.42,1.3125 1.281,1.3125 0.525,0 0.8295,-0.3675 1.2495,-0.6825 l -0.1155,-0.2625 c -0.21,0.1155 -0.3465,0.1575 -0.5145,0.1575 -0.336,0 -0.588,-0.1575 -0.588,-0.7875 v -2.4885 h 1.8375 v 2.751 c 0,0.9345 0.42,1.3125 1.281,1.3125 0.525,0 0.8295,-0.3675 1.2495,-0.6825 l -0.1155,-0.2625 c -0.21,0.1155 -0.3465,0.1575 -0.5145,0.1575 -0.336,0 -0.588,-0.1575 -0.588,-0.7875 v -2.4885 h 1.05 l 0.0315,-0.588 h -1.0815 v -0.7665 c 0,-0.4095 0,-0.8505 0.0315,-0.9975 l -0.168,-0.0945 -0.5985,0.2835 c -0.378,0.21 -0.567,0.672 -0.567,1.071 v 0.504 h -1.848 v -0.7665 c 0,-0.4095 0,-0.8505 0.0315,-0.9975 l -0.168,-0.0945 -0.5985,0.2835 c -0.378,0.21 -0.567,0.672 -0.567,1.071 v 0.504 z"
         style="font-style:normal;font-variant:normal;font-weight:bold;font-stretch:normal;font-size:10.5px;font-family:KpRoman;-inkscape-font-specification:'KpRoman Bold';stroke-width:0.75"
         id="path1967" /><path
         d="m -16.160698,-13.104017 c 0,1.428 0.861,2.3835 2.3205,2.3835 0.714,0 1.5855,-0.357 1.8375,-1.0395 l -0.1365,-0.189 c -0.4095,0.231 -0.777,0.3885 -1.176,0.3885 -1.05,0 -1.5225,-0.8085 -1.5435,-1.743 0,0 0.8295,0.084 1.302,0.084 0.3045,0 0.6195,-0.042 0.945,-0.147 l 0.6825,-0.357 c -0.0105,-1.5225 -0.8295,-1.995 -1.8165,-1.995 -0.504,0 -1.0185,0.231 -1.428,0.5355 -0.63,0.462 -0.987,1.134 -0.987,2.079 z m 1.2915,-0.714 c 0.0525,-0.882 0.3675,-1.365 0.861,-1.365 0.504,0 0.882,0.2415 0.8925,0.9765 0,0.3465 -0.441,0.3885 -0.5565,0.4095 -0.273,0.042 -0.42,0.042 -0.609,0.042 -0.147,0 -0.315,-0.021 -0.588,-0.063 z"
         style="font-style:normal;font-variant:normal;font-weight:bold;font-stretch:normal;font-size:10.5px;font-family:KpRoman;-inkscape-font-specification:'KpRoman Bold';stroke-width:0.75"
         id="path1969" /><path
         d="m -11.036702,-10.857017 c 0,0 0.8085,-0.0105 1.4595002,-0.0105 0.483,0 1.029,0 1.4385,0.0105 v -0.357 c -0.609,-0.021 -0.8925,0.021 -0.8925,-0.7035 v -2.079 c 0,-0.399 0.4095,-0.588 0.7035,-0.588 0.2205,0 0.3465,0.2205 0.5145,0.4095 l 0.1995,-0.0105 0.42,-1.1235 c -0.1785,-0.294 -0.2835,-0.4095 -0.5565,-0.4095 -0.483,0 -0.8295,0.357 -1.281,1.05 v -0.9345 l -0.0735,-0.1155 c -0.6615,0.1365 -1.2495002,0.336 -1.9215002,0.42 v 0.3255 c 0.651,0.0735 0.714,-0.042 0.714,0.7455 v 2.31 c 0,0.7245 -0.1365,0.651 -0.7245,0.7035 z"
         style="font-style:normal;font-variant:normal;font-weight:bold;font-stretch:normal;font-size:10.5px;font-family:KpRoman;-inkscape-font-specification:'KpRoman Bold';stroke-width:0.75"
         id="path1971" /><path
         d="m -4.1067074,-17.629517 c 0.6615,0.042 0.714,-0.0525 0.714,0.7245 v 5.5965 l 0.1155,0.147 c 0,0 0.9765,0.441 1.785,0.441 1.50149997,0 2.8875,-1.407 2.8875,-2.898 0,-1.1655 -0.85050003,-2.1 -2.00550003,-2.1 -0.56699997,0 -1.00799997,0.3675 -1.45949997,0.6615 v -3.2445 l -0.042,-0.0735 c -0.672,0.147 -1.302,0.3255 -1.995,0.4095 z m 2.037,5.6385 v -2.5935 c 0.189,-0.21 0.4725,-0.3045 0.735,-0.3045 0.80849997,0 1.36499997,0.5775 1.36499997,1.7325 0,1.1865 -0.462,1.8585 -1.17599997,1.8585 -0.378,0 -0.924,-0.315 -0.924,-0.693 z"
         style="font-style:normal;font-variant:normal;font-weight:bold;font-stretch:normal;font-size:10.5px;font-family:KpRoman;-inkscape-font-specification:'KpRoman Bold';stroke-width:0.75"
         id="path1973" /><path
         d="m 2.2982839,-10.857017 c 0,0 0.8085,-0.0105 1.4595,-0.0105 0.483,0 1.029,0 1.4385,0.0105 v -0.357 c -0.609,-0.021 -0.8925,0.021 -0.8925,-0.7035 v -2.079 c 0,-0.399 0.4095,-0.588 0.7035,-0.588 0.2205,0 0.3465,0.2205 0.5145,0.4095 l 0.1995,-0.0105 0.42,-1.1235 c -0.1785,-0.294 -0.2835,-0.4095 -0.5565,-0.4095 -0.483,0 -0.8295,0.357 -1.281,1.05 v -0.9345 l -0.0735,-0.1155 c -0.6615,0.1365 -1.2495,0.336 -1.9215,0.42 v 0.3255 c 0.651,0.0735 0.714,-0.042 0.714,0.7455 v 2.31 c 0,0.7245 -0.1365,0.651 -0.7245,0.7035 z"
         style="font-style:normal;font-variant:normal;font-weight:bold;font-stretch:normal;font-size:10.5px;font-family:KpRoman;-inkscape-font-specification:'KpRoman Bold';stroke-width:0.75"
         id="path1975" /><path
         d="m 6.7817704,-12.012017 c 0,0.7245 0.4935,1.2915 1.2705,1.2915 0.4725,0 0.987,-0.546 1.3335,-0.777 0.063,0.21 0.1155,0.7035 0.441,0.7035 0.4724996,0 0.9764996,-0.189 1.5119996,-0.3045 l -0.0525,-0.3465 c -0.0945,0.021 -0.168,0.0315 -0.2415,0.0315 -0.315,0 -0.399,-0.2415 -0.4095,-0.609 l 0.0105,-2.289 c 0,-0.966 -0.6929996,-1.407 -1.5854996,-1.407 -0.777,0.084 -1.4805,0.378 -1.995,1.365 l 0.462,0.2835 c 0.4515,-0.546 0.5145,-0.966 1.155,-0.966 0.6615,0 0.693,0.3465 0.7035,1.2075 l -1.302,0.4725 c -0.9135,0.336 -1.302,0.6405 -1.302,1.344 z m 1.2915,-0.2625 c 0,-0.7455 0.756,-0.8295 1.3125,-1.113 v 1.4385 c -0.2205,0.231 -0.5145,0.378 -0.7455,0.378 -0.2835,0 -0.567,-0.252 -0.567,-0.7035 z"
         style="font-style:normal;font-variant:normal;font-weight:bold;font-stretch:normal;font-size:10.5px;font-family:KpRoman;-inkscape-font-specification:'KpRoman Bold';stroke-width:0.75"
         id="path1977" /><path
         d="m 11.989751,-10.857017 c 0.5355,-0.0105 1.0815,-0.021 1.617,-0.021 0.3465,0 0.693,0.0105 1.0395,0.021 v -0.357 c -0.546,-0.0735 -0.63,-0.0105 -0.63,-0.7035 v -2.394 c 0.147,-0.315 0.525,-0.5565 0.8925,-0.5565 0.609,0 0.861,0.3675 0.861,0.8085 v 2.142 c 0,0.3045 -0.021,0.7245 -0.2835,0.756 v 0.3045 c 0,0 0.6825,-0.0105 1.1235,-0.0105 0.4305,0 0.735,0 1.113,0.0105 v -0.357 c -0.567,-0.063 -0.672,0.0105 -0.672,-0.7035 v -2.142 c 0,-0.9975 -0.399,-1.659 -1.47,-1.659 -0.672,0 -1.05,0.441 -1.5645,0.798 v -0.7245 l -0.0315,-0.0735 c -0.8925,0.252 -1.365,0.357 -1.953,0.4095 v 0.336 c 0.6405,0.0735 0.7035,-0.0525 0.7035,0.735 v 2.3205 c 0,0.735 -0.1575,0.651 -0.7455,0.7035 z"
         style="font-style:normal;font-variant:normal;font-weight:bold;font-stretch:normal;font-size:10.5px;font-family:KpRoman;-inkscape-font-specification:'KpRoman Bold';stroke-width:0.75"
         id="path1979" /><path
         d="m 18.60474,-13.125017 c 0,1.407 0.84,2.394 2.3205,2.4045 0.7035,0 1.5645,-0.4935 1.701,-0.9975 l -0.1575,-0.1785 c -0.3675,0.252 -0.6405,0.336 -1.008,0.336 -0.756,0 -1.575,-0.6195 -1.575,-1.995 0,-1.05 0.441,-1.491 0.9765,-1.491 0.3465,0 0.672,0.147 0.8295,0.357 l 0.2205,0.4515 c 0,0 0.2835,0.0525 0.2835,0.042 0.126,-0.3255 0.315,-1.0605 0.315,-1.0605 -0.336,-0.3675 -0.8925,-0.462 -1.134,-0.462 -1.3545,0 -2.772,1.2075 -2.772,2.5935 z"
         style="font-style:normal;font-variant:normal;font-weight:bold;font-stretch:normal;font-size:10.5px;font-family:KpRoman;-inkscape-font-specification:'KpRoman Bold';stroke-width:0.75"
         id="path1981" /><path
         d="m 23.287726,-10.857017 c 0,0 0.861,-0.021 1.491,-0.021 0.4095,0 0.8085,0.0105 1.155,0.021 v -0.357 c -0.546,-0.0735 -0.6195,-0.0105 -0.6195,-0.7035 v -2.4255 c 0.126,-0.3045 0.4935,-0.5355 0.8715,-0.5355 0.567,0 0.8925,0.315 0.8925,1.071 v 1.89 c 0,0.3045 -0.021,0.7245 -0.273,0.756 v 0.3045 c 0,0 0.5355,-0.0105 0.966,-0.0105 0.441,0 0.8925,0 1.2705,0.0105 v -0.357 c -0.567,-0.063 -0.6825,0.0105 -0.6825,-0.7035 v -2.037 c 0,-1.155 -0.504,-1.7325 -1.407,-1.7325 -0.567,0 -1.2705,0.3675 -1.638,0.735 v -3.339 l -0.126,-0.21 c -0.693,0.315 -1.197,0.441 -1.869,0.5355 v 0.336 c 0.6405,0.042 0.714,-0.0315 0.714,0.7245 v 4.9875 c 0,0.735 -0.1575,0.651 -0.7455,0.7035 z"
         style="font-style:normal;font-variant:normal;font-weight:bold;font-stretch:normal;font-size:10.5px;font-family:KpRoman;-inkscape-font-specification:'KpRoman Bold';stroke-width:0.75"
         id="path1983" /></g><g
       id="g18"
       transform="translate(219.977,690.999)"
       style="stroke:none"><g
         id="g20"
         style="stroke:none"><path
           d="m -10.03433,0 c 0,3.85161 -3.12229,6.9739 -6.97391,6.9739 -3.85162,0 -6.97391,-3.12229 -6.97391,-6.9739 0,-3.85161 3.12229,-6.9739 6.97391,-6.9739 3.85162,0 6.97391,3.12229 6.97391,6.9739 z"
           style="fill:#d35f5f;fill-opacity:1;fill-rule:nonzero;stroke:none;stroke-width:5.9777;stroke-linecap:butt;stroke-linejoin:miter;stroke-miterlimit:10;stroke-dasharray:none;stroke-opacity:1"
           id="path22" /></g><g
         id="g24"
         transform="translate(-17.008)"
         style="stroke:none"><g
           id="g26"
           style="stroke:none" /><g
           id="g28"
           transform="translate(17.008)"
           style="stroke:none" /></g></g><g
       id="g50"
       transform="translate(219.977,690.999)"><g
         id="g52"><path
           d="m 22.67752,0 c 0,0 0,0 0,0 0,0 0,0 0,0 0,0 0,0 0,0 0,0 0,0 0,0 z"
           style="fill:#ffffff;fill-opacity:1;fill-rule:nonzero;stroke:#808080;stroke-width:1.59404;stroke-linecap:butt;stroke-linejoin:miter;stroke-miterlimit:10;stroke-dasharray:none;stroke-opacity:1"
           id="path54" /></g><g
         id="g56"
         transform="translate(22.677)"><g
           id="g58" /><g
           id="g60"
           transform="translate(-22.677)" /></g></g><g
       id="g62"
       transform="translate(219.977,690.999)"><g
         id="g64"><path
           d="M -7.04547,0 H 17.71642"
           style="fill:none;stroke:#a7a7a7;stroke-width:1.99252;stroke-linecap:butt;stroke-linejoin:miter;stroke-miterlimit:10;stroke-dasharray:none;stroke-opacity:1"
           id="path66" /><g
           id="g68"
           transform="translate(17.39609)"><g
             id="g70"><path
               d="M 3.84377,0 0.64063,1.99788 V 0 -1.99788 Z"
               style="fill:#a7a7a7;fill-opacity:1;fill-rule:nonzero;stroke:#a7a7a7;stroke-width:1.28125;stroke-linecap:butt;stroke-linejoin:round;stroke-miterlimit:10;stroke-dasharray:none;stroke-opacity:1"
               id="path72" /></g></g><g
           id="g74"><g
             id="g76"
             transform="translate(7.417,4.317)"><g
               id="g78" /><g
               id="g80"
               transform="translate(-7.417,-4.317)" /></g></g></g></g><g
       id="g82"
       transform="translate(219.977,690.999)"
       style="stroke:none"><g
         id="g84"
         style="stroke:none"><path
           d="m 92.01433,0 c 0,3.85161 -3.12229,6.9739 -6.97391,6.9739 -3.85162,0 -6.97391,-3.12229 -6.97391,-6.9739 0,-3.85161 3.12229,-6.9739 6.97391,-6.9739 3.85162,0 6.97391,3.12229 6.97391,6.9739 z"
           style="fill:#d35f5f;fill-opacity:1;fill-rule:nonzero;stroke:none;stroke-width:5.9777;stroke-linecap:butt;stroke-linejoin:miter;stroke-miterlimit:10;stroke-dasharray:none;stroke-opacity:1"
           id="path86" /></g><g
         id="g88"
         transform="translate(85.039)"
         style="stroke:none"><g
           id="g90"
           style="stroke:none" /><g
           id="g92"
           transform="translate(-85.039)"
           style="stroke:none" /></g></g><g
       id="g114"
       transform="translate(219.977,690.999)"><g
         id="g116"><path
           d="m 113.38724,0 c 0,0 0,0 0,0 0,0 0,0 0,0 0,0 0,0 0,0 0,0 0,0 0,0 z"
           style="fill:#ffffff;fill-opacity:1;fill-rule:nonzero;stroke:#808080;stroke-width:1.59404;stroke-linecap:butt;stroke-linejoin:miter;stroke-miterlimit:10;stroke-dasharray:none;stroke-opacity:1"
           id="path118" /></g><g
         id="g120"
         transform="translate(113.385)"><g
           id="g122" /><g
           id="g124"
           transform="translate(-113.385)" /></g></g><g
       id="g126"
       transform="translate(219.977,690.999)"><g
         id="g128"><path
           d="m 56.69362,0 c 0,0 0,0 0,0 0,0 0,0 0,0 0,0 0,0 0,0 0,0 0,0 0,0 z"
           style="fill:#ffffff;fill-opacity:1;fill-rule:nonzero;stroke:#808080;stroke-width:1.59404;stroke-linecap:butt;stroke-linejoin:miter;stroke-miterlimit:10;stroke-dasharray:none;stroke-opacity:1"
           id="path130" /></g><g
         id="g132"
         transform="translate(56.693)"><g
           id="g134" /><g
           id="g136"
           transform="translate(-56.693)" /></g></g><g
       id="g138"
       transform="translate(219.977,690.999)"><g
         id="g140"><path
           d="m 95.00319,0 h 13.42294"
           style="fill:none;stroke:#a7a7a7;stroke-width:1.99252;stroke-linecap:butt;stroke-linejoin:miter;stroke-miterlimit:10;stroke-dasharray:none;stroke-opacity:1"
           id="path142" /><g
           id="g144"
           transform="translate(108.1058)"><g
             id="g146"><path
               d="M 3.84377,0 0.64063,1.99788 V 0 -1.99788 Z"
               style="fill:#a7a7a7;fill-opacity:1;fill-rule:nonzero;stroke:#a7a7a7;stroke-width:1.28125;stroke-linecap:butt;stroke-linejoin:round;stroke-miterlimit:10;stroke-dasharray:none;stroke-opacity:1"
               id="path148" /></g></g><g
           id="g150"><g
             id="g152"
             transform="translate(103.795,4.317)"><g
               id="g154" /><g
               id="g156"
               transform="translate(-103.795,-4.317)" /></g></g></g></g><g
       id="g158"
       transform="translate(219.977,690.999)"><g
         id="g160"><path
           d="M 57.49063,0 H 70.91357"
           style="fill:none;stroke:#a7a7a7;stroke-width:1.99252;stroke-linecap:butt;stroke-linejoin:miter;stroke-miterlimit:10;stroke-dasharray:none;stroke-opacity:1"
           id="path162" /><g
           id="g164"
           transform="translate(70.59325)"><g
             id="g166"><path
               d="M 3.84377,0 0.64063,1.99788 V 0 -1.99788 Z"
               style="fill:#a7a7a7;fill-opacity:1;fill-rule:nonzero;stroke:#a7a7a7;stroke-width:1.28125;stroke-linecap:butt;stroke-linejoin:round;stroke-miterlimit:10;stroke-dasharray:none;stroke-opacity:1"
               id="path168" /></g></g><g
           id="g170"><g
             id="g172"
             transform="translate(66.283,4.317)"><g
               id="g174" /><g
               id="g176"
               transform="translate(-66.283,-4.317)" /></g></g></g></g><g
       id="g178"
       transform="translate(219.977,690.999)"
       style="stroke:none"><g
         id="g180"
         style="stroke:none"><path
           d="m 160.0465,0 c 0,3.85161 -3.12229,6.9739 -6.97391,6.9739 -3.85161,0 -6.97391,-3.12229 -6.97391,-6.9739 0,-3.85161 3.1223,-6.9739 6.97391,-6.9739 3.85162,0 6.97391,3.12229 6.97391,6.9739 z"
           style="fill:#d35f5f;fill-opacity:1;fill-rule:nonzero;stroke:none;stroke-width:5.9777;stroke-linecap:butt;stroke-linejoin:miter;stroke-miterlimit:10;stroke-dasharray:none;stroke-opacity:1"
           id="path182" /></g><g
         id="g184"
         transform="translate(153.07)"
         style="stroke:none"><g
           id="g186"
           style="stroke:none" /><g
           id="g188"
           transform="translate(-153.07)"
           style="stroke:none" /></g></g><g
       id="g210"
       transform="translate(219.977,690.999)"><g
         id="g212"><path
           d="m 192.75838,0 c 0,0 0,0 0,0 0,0 0,0 0,0 0,0 0,0 0,0 0,0 0,0 0,0 z"
           style="fill:#ffffff;fill-opacity:1;fill-rule:nonzero;stroke:#808080;stroke-width:1.59404;stroke-linecap:butt;stroke-linejoin:miter;stroke-miterlimit:10;stroke-dasharray:none;stroke-opacity:1"
           id="path214" /></g><g
         id="g216"
         transform="translate(192.756)"><g
           id="g218" /><g
           id="g220"
           transform="translate(-192.756)" /></g></g><g
       id="g222"
       transform="translate(219.977,690.999)"><g
         id="g224"><path
           d="M 191.96135,0 H 167.19943"
           style="fill:none;stroke:#a7a7a7;stroke-width:1.99252;stroke-linecap:butt;stroke-linejoin:miter;stroke-miterlimit:10;stroke-dasharray:none;stroke-opacity:1"
           id="path226" /><g
           id="g228"
           transform="rotate(180,83.75988,0)"><g
             id="g230"><path
               d="M 3.84377,0 0.64063,1.99788 V 0 -1.99788 Z"
               style="fill:#a7a7a7;fill-opacity:1;fill-rule:nonzero;stroke:#a7a7a7;stroke-width:1.28125;stroke-linecap:butt;stroke-linejoin:round;stroke-miterlimit:10;stroke-dasharray:none;stroke-opacity:1"
               id="path232" /></g></g><g
           id="g234"><g
             id="g236"
             transform="translate(177.496,-4.317)"><g
               id="g238" /><g
               id="g240"
               transform="translate(-177.496,4.317)" /></g></g></g></g><g
       aria-label="Hub branch"
       transform="matrix(1,0,0,-1,219.977,690.999)"
       id="text14988-3"
       style="font-size:10.5px;line-height:1.25;font-family:serif;-inkscape-font-specification:serif;stroke-width:0.75"><path
         d="m 56.904012,-17.482517 c 0.903,0.0735 0.9135,0.126 0.9135,1.092 v 4.137 c 0,0.8925 -0.021,0.945 -0.8925,1.0185 v 0.378 c 0.5355,-0.021 1.0605,-0.021 1.596,-0.021 0.5355,0 1.071,0 1.6065,0.021 v -0.378 c -0.8715,-0.0735 -0.8925,-0.126 -0.8925,-1.0185 v -1.9845 c 0.504,-0.021 1.0185,-0.0315 1.533,-0.0315 0.5145,0 1.0395,0.0105 1.5435,0.0315 v 1.9215 c 0,0.9765 -0.0105,1.0185 -0.924,1.0815 v 0.378 c 0.546,-0.021 1.0815,-0.021 1.617,-0.021 0.5355,0 1.071,0 1.617,0.021 v -0.378 c -0.8715,-0.0735 -0.8925,-0.126 -0.8925,-1.0185 v -4.2 c 0,-0.903 0.021,-0.9555 0.903,-1.029 v -0.378 c -0.588,0.0105 -1.029,0.021 -1.617,0.021 -0.483,0 -1.1025,-0.0105 -1.5855,-0.021 v 0.378 c 0.861,0.0735 0.882,0.1365 0.882,1.029 v 1.617 c -0.252,0.0315 -0.987,0.042 -1.5435,0.042 -0.7245,0 -1.281,-0.021 -1.533,-0.042 v -1.68 c 0,-0.8295 0.0315,-0.8925 0.8715,-0.966 v -0.378 c -0.588,0.0105 -1.008,0.021 -1.596,0.021 -0.483,0 -1.1235,-0.0105 -1.6065,-0.021 z"
         style="font-style:normal;font-variant:normal;font-weight:bold;font-stretch:normal;font-size:10.5px;font-family:KpRoman;-inkscape-font-specification:'KpRoman Bold';stroke-width:0.75"
         id="path1986" /><path
         d="m 65.198987,-15.025517 c 0.6195,0.0735 0.672,-0.0105 0.672,0.651 v 2.1315 c 0,0.9345 0.525,1.5225 1.47,1.5225 0.735,0 1.008,-0.4935 1.533,-0.882 l -0.0315,0.714 0.042,0.0945 c 0.6615,-0.063 1.3125,-0.168 1.9845,-0.189 v -0.357 c -0.609,-0.021 -0.714,0.0525 -0.714,-0.6195 v -3.6435 l -0.0525,-0.084 c -0.6615,0.126 -1.2705,0.252 -1.932,0.315 v 0.3465 c 0.63,0.063 0.7035,-0.021 0.7035,0.651 v 2.1105 c -0.1575,0.3885 -0.5355,0.672 -0.9555,0.672 -0.504,0 -0.7665,-0.294 -0.7665,-1.113 v -2.8875 l -0.0525,-0.0945 c -0.6195,0.126 -1.2495,0.252 -1.9005,0.315 z"
         style="font-style:normal;font-variant:normal;font-weight:bold;font-stretch:normal;font-size:10.5px;font-family:KpRoman;-inkscape-font-specification:'KpRoman Bold';stroke-width:0.75"
         id="path1988" /><path
         d="m 71.614476,-17.629517 c 0.6615,0.042 0.714,-0.0525 0.714,0.7245 v 5.5965 l 0.1155,0.147 c 0,0 0.9765,0.441 1.785,0.441 1.5015,0 2.8875,-1.407 2.8875,-2.898 0,-1.1655 -0.8505,-2.1 -2.0055,-2.1 -0.567,0 -1.008,0.3675 -1.4595,0.6615 v -3.2445 l -0.042,-0.0735 c -0.672,0.147 -1.302,0.3255 -1.995,0.4095 z m 2.037,5.6385 v -2.5935 c 0.189,-0.21 0.4725,-0.3045 0.735,-0.3045 0.8085,0 1.365,0.5775 1.365,1.7325 0,1.1865 -0.462,1.8585 -1.176,1.8585 -0.378,0 -0.924,-0.315 -0.924,-0.693 z"
         style="font-style:normal;font-variant:normal;font-weight:bold;font-stretch:normal;font-size:10.5px;font-family:KpRoman;-inkscape-font-specification:'KpRoman Bold';stroke-width:0.75"
         id="path1990" /><path
         d="m 80.497464,-17.629517 c 0.6615,0.042 0.714,-0.0525 0.714,0.7245 v 5.5965 l 0.1155,0.147 c 0,0 0.9765,0.441 1.785,0.441 1.5015,0 2.8875,-1.407 2.8875,-2.898 0,-1.1655 -0.8505,-2.1 -2.0055,-2.1 -0.567,0 -1.008,0.3675 -1.4595,0.6615 v -3.2445 l -0.042,-0.0735 c -0.672,0.147 -1.302,0.3255 -1.995,0.4095 z m 2.037,5.6385 v -2.5935 c 0.189,-0.21 0.4725,-0.3045 0.735,-0.3045 0.8085,0 1.365,0.5775 1.365,1.7325 0,1.1865 -0.462,1.8585 -1.176,1.8585 -0.378,0 -0.924,-0.315 -0.924,-0.693 z"
         style="font-style:normal;font-variant:normal;font-weight:bold;font-stretch:normal;font-size:10.5px;font-family:KpRoman;-inkscape-font-specification:'KpRoman Bold';stroke-width:0.75"
         id="path1992" /><path
         d="m 86.902452,-10.857017 c 0,0 0.8085,-0.0105 1.4595,-0.0105 0.483,0 1.029,0 1.4385,0.0105 v -0.357 c -0.609,-0.021 -0.8925,0.021 -0.8925,-0.7035 v -2.079 c 0,-0.399 0.4095,-0.588 0.7035,-0.588 0.2205,0 0.3465,0.2205 0.5145,0.4095 l 0.1995,-0.0105 0.42,-1.1235 c -0.1785,-0.294 -0.2835,-0.4095 -0.5565,-0.4095 -0.483,0 -0.8295,0.357 -1.281,1.05 v -0.9345 l -0.0735,-0.1155 c -0.6615,0.1365 -1.2495,0.336 -1.9215,0.42 v 0.3255 c 0.651,0.0735 0.714,-0.042 0.714,0.7455 v 2.31 c 0,0.7245 -0.1365,0.651 -0.7245,0.7035 z"
         style="font-style:normal;font-variant:normal;font-weight:bold;font-stretch:normal;font-size:10.5px;font-family:KpRoman;-inkscape-font-specification:'KpRoman Bold';stroke-width:0.75"
         id="path1994" /><path
         d="m 91.385938,-12.012017 c 0,0.7245 0.4935,1.2915 1.2705,1.2915 0.4725,0 0.987,-0.546 1.3335,-0.777 0.063,0.21 0.1155,0.7035 0.441,0.7035 0.4725,0 0.9765,-0.189 1.512,-0.3045 l -0.0525,-0.3465 c -0.0945,0.021 -0.168,0.0315 -0.2415,0.0315 -0.315,0 -0.399,-0.2415 -0.4095,-0.609 l 0.0105,-2.289 c 0,-0.966 -0.693,-1.407 -1.5855,-1.407 -0.777,0.084 -1.4805,0.378 -1.995,1.365 l 0.462,0.2835 c 0.4515,-0.546 0.5145,-0.966 1.155,-0.966 0.6615,0 0.693,0.3465 0.7035,1.2075 l -1.302,0.4725 c -0.9135,0.336 -1.302,0.6405 -1.302,1.344 z m 1.2915,-0.2625 c 0,-0.7455 0.756,-0.8295 1.3125,-1.113 v 1.4385 c -0.2205,0.231 -0.5145,0.378 -0.7455,0.378 -0.2835,0 -0.567,-0.252 -0.567,-0.7035 z"
         style="font-style:normal;font-variant:normal;font-weight:bold;font-stretch:normal;font-size:10.5px;font-family:KpRoman;-inkscape-font-specification:'KpRoman Bold';stroke-width:0.75"
         id="path1996" /><path
         d="m 96.593923,-10.857017 c 0.5355,-0.0105 1.0815,-0.021 1.617,-0.021 0.3465,0 0.693,0.0105 1.0395,0.021 v -0.357 c -0.546,-0.0735 -0.63,-0.0105 -0.63,-0.7035 v -2.394 c 0.147,-0.315 0.525,-0.5565 0.8925,-0.5565 0.608997,0 0.860997,0.3675 0.860997,0.8085 v 2.142 c 0,0.3045 -0.021,0.7245 -0.2835,0.756 v 0.3045 c 0,0 0.6825,-0.0105 1.1235,-0.0105 0.4305,0 0.735,0 1.113,0.0105 v -0.357 c -0.567,-0.063 -0.672,0.0105 -0.672,-0.7035 v -2.142 c 0,-0.9975 -0.399,-1.659 -1.47,-1.659 -0.671997,0 -1.049997,0.441 -1.564497,0.798 v -0.7245 l -0.0315,-0.0735 c -0.8925,0.252 -1.365,0.357 -1.953,0.4095 v 0.336 c 0.6405,0.0735 0.7035,-0.0525 0.7035,0.735 v 2.3205 c 0,0.735 -0.1575,0.651 -0.7455,0.7035 z"
         style="font-style:normal;font-variant:normal;font-weight:bold;font-stretch:normal;font-size:10.5px;font-family:KpRoman;-inkscape-font-specification:'KpRoman Bold';stroke-width:0.75"
         id="path1998" /><path
         d="m 103.20891,-13.125017 c 0,1.407 0.84,2.394 2.3205,2.4045 0.7035,0 1.5645,-0.4935 1.701,-0.9975 l -0.1575,-0.1785 c -0.3675,0.252 -0.6405,0.336 -1.008,0.336 -0.756,0 -1.575,-0.6195 -1.575,-1.995 0,-1.05 0.441,-1.491 0.9765,-1.491 0.3465,0 0.672,0.147 0.8295,0.357 l 0.2205,0.4515 c 0,0 0.2835,0.0525 0.2835,0.042 0.126,-0.3255 0.315,-1.0605 0.315,-1.0605 -0.336,-0.3675 -0.8925,-0.462 -1.134,-0.462 -1.3545,0 -2.772,1.2075 -2.772,2.5935 z"
         style="font-style:normal;font-variant:normal;font-weight:bold;font-stretch:normal;font-size:10.5px;font-family:KpRoman;-inkscape-font-specification:'KpRoman Bold';stroke-width:0.75"
         id="path2000" /><path
         d="m 107.89189,-10.857017 c 0,0 0.861,-0.021 1.491,-0.021 0.4095,0 0.8085,0.0105 1.155,0.021 v -0.357 c -0.546,-0.0735 -0.6195,-0.0105 -0.6195,-0.7035 v -2.4255 c 0.126,-0.3045 0.4935,-0.5355 0.8715,-0.5355 0.567,0 0.8925,0.315 0.8925,1.071 v 1.89 c 0,0.3045 -0.021,0.7245 -0.273,0.756 v 0.3045 c 0,0 0.5355,-0.0105 0.966,-0.0105 0.441,0 0.8925,0 1.2705,0.0105 v -0.357 c -0.567,-0.063 -0.6825,0.0105 -0.6825,-0.7035 v -2.037 c 0,-1.155 -0.504,-1.7325 -1.407,-1.7325 -0.567,0 -1.2705,0.3675 -1.638,0.735 v -3.339 l -0.126,-0.21 c -0.693,0.315 -1.197,0.441 -1.869,0.5355 v 0.336 c 0.6405,0.042 0.714,-0.0315 0.714,0.7245 v 4.9875 c 0,0.735 -0.1575,0.651 -0.7455,0.7035 z"
         style="font-style:normal;font-variant:normal;font-weight:bold;font-stretch:normal;font-size:10.5px;font-family:KpRoman;-inkscape-font-specification:'KpRoman Bold';stroke-width:0.75"
         id="path2002" /></g><g
       aria-label="Receiver branch"
       transform="matrix(1,0,0,-1,219.977,690.999)"
       id="text14988-7"
       style="font-size:10.5px;line-height:1.25;font-family:serif;-inkscape-font-specification:serif;stroke-width:0.75"><path
         d="m 135.73569,-10.857017 c 0.525,-0.0105 1.0605,-0.0105 1.5855,-0.0105 0.525,0 1.05,0 1.575,0.0105 v -0.378 c -0.861,-0.0735 -0.882,-0.126 -0.882,-1.0185 v -4.8405 c 0,-0.252 0.1995,-0.273 0.5775,-0.273 0.7665,0 1.386,0.4305 1.386,1.3755 0,0.5355 -0.21,1.0185 -0.63,1.3125 -0.504,0.3465 -1.0815,0.084 -1.0815,0.42 0,0.126 0.5985,0.693 0.756,0.945 0.1785,0.2835 1.0605,1.7745 1.218,2.016 0.189,0.294 0.9765,0.567 1.512,0.5775 l 0.861,-0.0525 -0.168,-0.189 c -0.3045,-0.0945 -0.483,-0.4095 -0.672,-0.6615 l -1.7955,-2.7825 c 0.8295,-0.3255 1.4595,-0.8715 1.4595,-1.827 0,-1.365 -1.155,-1.6275 -2.2785,-1.6275 h -3.402 v 0.3675 c 0.8295,0.063 0.861,0.1575 0.861,0.9345 v 4.368 c 0,0.84 -0.0315,0.882 -0.882,0.9555 z"
         style="font-style:normal;font-variant:normal;font-weight:bold;font-stretch:normal;font-size:10.5px;font-family:KpRoman;-inkscape-font-specification:'KpRoman Bold';stroke-width:0.75"
         id="path2005" /><path
         d="m 143.20118,-13.104017 c 0,1.428 0.861,2.3835 2.3205,2.3835 0.714,0 1.5855,-0.357 1.8375,-1.0395 l -0.1365,-0.189 c -0.4095,0.231 -0.777,0.3885 -1.176,0.3885 -1.05,0 -1.5225,-0.8085 -1.5435,-1.743 0,0 0.8295,0.084 1.302,0.084 0.3045,0 0.6195,-0.042 0.945,-0.147 l 0.6825,-0.357 c -0.0105,-1.5225 -0.8295,-1.995 -1.8165,-1.995 -0.504,0 -1.0185,0.231 -1.428,0.5355 -0.63,0.462 -0.987,1.134 -0.987,2.079 z m 1.2915,-0.714 c 0.0525,-0.882 0.3675,-1.365 0.861,-1.365 0.504,0 0.882,0.2415 0.8925,0.9765 0,0.3465 -0.441,0.3885 -0.5565,0.4095 -0.273,0.042 -0.42,0.042 -0.609,0.042 -0.147,0 -0.315,-0.021 -0.588,-0.063 z"
         style="font-style:normal;font-variant:normal;font-weight:bold;font-stretch:normal;font-size:10.5px;font-family:KpRoman;-inkscape-font-specification:'KpRoman Bold';stroke-width:0.75"
         id="path2007" /><path
         d="m 148.39868,-13.125017 c 0,1.407 0.84,2.394 2.3205,2.4045 0.7035,0 1.5645,-0.4935 1.701,-0.9975 l -0.1575,-0.1785 c -0.3675,0.252 -0.6405,0.336 -1.008,0.336 -0.756,0 -1.575,-0.6195 -1.575,-1.995 0,-1.05 0.441,-1.491 0.9765,-1.491 0.3465,0 0.672,0.147 0.8295,0.357 l 0.2205,0.4515 c 0,0 0.2835,0.0525 0.2835,0.042 0.126,-0.3255 0.315,-1.0605 0.315,-1.0605 -0.336,-0.3675 -0.8925,-0.462 -1.134,-0.462 -1.3545,0 -2.772,1.2075 -2.772,2.5935 z"
         style="font-style:normal;font-variant:normal;font-weight:bold;font-stretch:normal;font-size:10.5px;font-family:KpRoman;-inkscape-font-specification:'KpRoman Bold';stroke-width:0.75"
         id="path2009" /><path
         d="m 153.29166,-13.104017 c 0,1.428 0.861,2.3835 2.3205,2.3835 0.714,0 1.5855,-0.357 1.8375,-1.0395 l -0.1365,-0.189 c -0.4095,0.231 -0.777,0.3885 -1.176,0.3885 -1.05,0 -1.5225,-0.8085 -1.5435,-1.743 0,0 0.8295,0.084 1.302,0.084 0.3045,0 0.6195,-0.042 0.945,-0.147 l 0.6825,-0.357 c -0.0105,-1.5225 -0.8295,-1.995 -1.8165,-1.995 -0.504,0 -1.0185,0.231 -1.428,0.5355 -0.63,0.462 -0.987,1.134 -0.987,2.079 z m 1.2915,-0.714 c 0.0525,-0.882 0.3675,-1.365 0.861,-1.365 0.504,0 0.882,0.2415 0.8925,0.9765 0,0.3465 -0.441,0.3885 -0.5565,0.4095 -0.273,0.042 -0.42,0.042 -0.609,0.042 -0.147,0 -0.315,-0.021 -0.588,-0.063 z"
         style="font-style:normal;font-variant:normal;font-weight:bold;font-stretch:normal;font-size:10.5px;font-family:KpRoman;-inkscape-font-specification:'KpRoman Bold';stroke-width:0.75"
         id="path2011" /><path
         d="m 158.41566,-10.857017 c 0.5565,-0.0105 0.945,-0.0105 1.407,-0.021 0.399,0 0.987,0.0105 1.344,0.021 v -0.357 c -0.5985,-0.0525 -0.735,0.021 -0.735,-0.7035 v -3.7065 l -0.0525,-0.0945 c -0.6615,0.147 -1.2705,0.3255 -1.9425,0.42 v 0.3255 c 0.651,0.0735 0.714,-0.042 0.714,0.7455 v 2.31 c 0,0.7245 -0.1365,0.651 -0.735,0.7035 z m 0.5355,-6.132 c 0,0.4305 0.357,0.777 0.777,0.777 0.4305,0 0.777,-0.3465 0.777,-0.7665 0,-0.4305 -0.336,-0.777 -0.7665,-0.777 -0.4305,0 -0.7875,0.336 -0.7875,0.7665 z"
         style="font-style:normal;font-variant:normal;font-weight:bold;font-stretch:normal;font-size:10.5px;font-family:KpRoman;-inkscape-font-specification:'KpRoman Bold';stroke-width:0.75"
         id="path2013" /><path
         d="m 161.71264,-15.225017 c 0.546,0.042 0.5985,0.126 0.819,0.672 l 1.5015,3.738 h 0.672 l 1.659,-3.843 c 0.21,-0.462 0.3255,-0.504 0.798,-0.567 v -0.3675 c -0.399,0.0105 -0.5985,0.021 -1.008,0.021 -0.2625,0 -0.7245,-0.0105 -0.987,-0.021 v 0.3675 c 0.2835,0.0315 0.588,-0.0315 0.588,0.252 0,0.168 -0.987,2.562 -0.987,2.562 0,0 -0.966,-2.373 -0.966,-2.583 0,-0.252 0.3045,-0.1995 0.567,-0.231 v -0.3675 c -0.5355,0.0105 -0.9345,0.021 -1.47,0.021 -0.3465,0 -0.84,-0.0105 -1.1865,-0.021 z"
         style="font-style:normal;font-variant:normal;font-weight:bold;font-stretch:normal;font-size:10.5px;font-family:KpRoman;-inkscape-font-specification:'KpRoman Bold';stroke-width:0.75"
         id="path2015" /><path
         d="m 167.60311,-13.104017 c 0,1.428 0.861,2.3835 2.3205,2.3835 0.714,0 1.5855,-0.357 1.8375,-1.0395 l -0.1365,-0.189 c -0.4095,0.231 -0.777,0.3885 -1.176,0.3885 -1.05,0 -1.5225,-0.8085 -1.5435,-1.743 0,0 0.8295,0.084 1.302,0.084 0.3045,0 0.6195,-0.042 0.945,-0.147 l 0.6825,-0.357 c -0.0105,-1.5225 -0.8295,-1.995 -1.8165,-1.995 -0.504,0 -1.0185,0.231 -1.428,0.5355 -0.63,0.462 -0.987,1.134 -0.987,2.079 z m 1.2915,-0.714 c 0.0525,-0.882 0.3675,-1.365 0.861,-1.365 0.504,0 0.882,0.2415 0.8925,0.9765 0,0.3465 -0.441,0.3885 -0.5565,0.4095 -0.273,0.042 -0.42,0.042 -0.609,0.042 -0.147,0 -0.315,-0.021 -0.588,-0.063 z"
         style="font-style:normal;font-variant:normal;font-weight:bold;font-stretch:normal;font-size:10.5px;font-family:KpRoman;-inkscape-font-specification:'KpRoman Bold';stroke-width:0.75"
         id="path2017" /><path
         d="m 172.72711,-10.857017 c 0,0 0.8085,-0.0105 1.4595,-0.0105 0.483,0 1.029,0 1.4385,0.0105 v -0.357 c -0.609,-0.021 -0.8925,0.021 -0.8925,-0.7035 v -2.079 c 0,-0.399 0.4095,-0.588 0.7035,-0.588 0.2205,0 0.3465,0.2205 0.5145,0.4095 l 0.1995,-0.0105 0.42,-1.1235 c -0.1785,-0.294 -0.2835,-0.4095 -0.5565,-0.4095 -0.483,0 -0.8295,0.357 -1.281,1.05 v -0.9345 l -0.0735,-0.1155 c -0.6615,0.1365 -1.2495,0.336 -1.9215,0.42 v 0.3255 c 0.651,0.0735 0.714,-0.042 0.714,0.7455 v 2.31 c 0,0.7245 -0.1365,0.651 -0.7245,0.7035 z"
         style="font-style:normal;font-variant:normal;font-weight:bold;font-stretch:normal;font-size:10.5px;font-family:KpRoman;-inkscape-font-specification:'KpRoman Bold';stroke-width:0.75"
         id="path2019" /><path
         d="m 179.65711,-17.629517 c 0.6615,0.042 0.714,-0.0525 0.714,0.7245 v 5.5965 l 0.1155,0.147 c 0,0 0.9765,0.441 1.785,0.441 1.5015,0 2.8875,-1.407 2.8875,-2.898 0,-1.1655 -0.8505,-2.1 -2.0055,-2.1 -0.567,0 -1.008,0.3675 -1.4595,0.6615 v -3.2445 l -0.042,-0.0735 c -0.672,0.147 -1.302,0.3255 -1.995,0.4095 z m 2.037,5.6385 v -2.5935 c 0.189,-0.21 0.4725,-0.3045 0.735,-0.3045 0.8085,0 1.365,0.5775 1.365,1.7325 0,1.1865 -0.462,1.8585 -1.176,1.8585 -0.378,0 -0.924,-0.315 -0.924,-0.693 z"
         style="font-style:normal;font-variant:normal;font-weight:bold;font-stretch:normal;font-size:10.5px;font-family:KpRoman;-inkscape-font-specification:'KpRoman Bold';stroke-width:0.75"
         id="path2021" /><path
         d="m 186.06209,-10.857017 c 0,0 0.8085,-0.0105 1.4595,-0.0105 0.483,0 1.029,0 1.4385,0.0105 v -0.357 c -0.609,-0.021 -0.8925,0.021 -0.8925,-0.7035 v -2.079 c 0,-0.399 0.4095,-0.588 0.7035,-0.588 0.2205,0 0.3465,0.2205 0.5145,0.4095 l 0.1995,-0.0105 0.42,-1.1235 c -0.1785,-0.294 -0.2835,-0.4095 -0.5565,-0.4095 -0.483,0 -0.8295,0.357 -1.281,1.05 v -0.9345 l -0.0735,-0.1155 c -0.6615,0.1365 -1.2495,0.336 -1.9215,0.42 v 0.3255 c 0.651,0.0735 0.714,-0.042 0.714,0.7455 v 2.31 c 0,0.7245 -0.1365,0.651 -0.7245,0.7035 z"
         style="font-style:normal;font-variant:normal;font-weight:bold;font-stretch:normal;font-size:10.5px;font-family:KpRoman;-inkscape-font-specification:'KpRoman Bold';stroke-width:0.75"
         id="path2023" /><path
         d="m 190.54558,-12.012017 c 0,0.7245 0.4935,1.2915 1.2705,1.2915 0.4725,0 0.987,-0.546 1.3335,-0.777 0.063,0.21 0.1155,0.7035 0.441,0.7035 0.4725,0 0.9765,-0.189 1.512,-0.3045 l -0.0525,-0.3465 c -0.0945,0.021 -0.168,0.0315 -0.2415,0.0315 -0.315,0 -0.399,-0.2415 -0.4095,-0.609 l 0.0105,-2.289 c 0,-0.966 -0.693,-1.407 -1.5855,-1.407 -0.777,0.084 -1.4805,0.378 -1.995,1.365 l 0.462,0.2835 c 0.4515,-0.546 0.5145,-0.966 1.155,-0.966 0.6615,0 0.693,0.3465 0.7035,1.2075 l -1.302,0.4725 c -0.9135,0.336 -1.302,0.6405 -1.302,1.344 z m 1.2915,-0.2625 c 0,-0.7455 0.756,-0.8295 1.3125,-1.113 v 1.4385 c -0.2205,0.231 -0.5145,0.378 -0.7455,0.378 -0.2835,0 -0.567,-0.252 -0.567,-0.7035 z"
         style="font-style:normal;font-variant:normal;font-weight:bold;font-stretch:normal;font-size:10.5px;font-family:KpRoman;-inkscape-font-specification:'KpRoman Bold';stroke-width:0.75"
         id="path2025" /><path
         d="m 195.75356,-10.857017 c 0.5355,-0.0105 1.0815,-0.021 1.617,-0.021 0.3465,0 0.693,0.0105 1.0395,0.021 v -0.357 c -0.546,-0.0735 -0.63,-0.0105 -0.63,-0.7035 v -2.394 c 0.147,-0.315 0.525,-0.5565 0.8925,-0.5565 0.609,0 0.861,0.3675 0.861,0.8085 v 2.142 c 0,0.3045 -0.021,0.7245 -0.2835,0.756 v 0.3045 c 0,0 0.6825,-0.0105 1.1235,-0.0105 0.4305,0 0.735,0 1.113,0.0105 v -0.357 c -0.567,-0.063 -0.672,0.0105 -0.672,-0.7035 v -2.142 c 0,-0.9975 -0.399,-1.659 -1.47,-1.659 -0.672,0 -1.05,0.441 -1.5645,0.798 v -0.7245 l -0.0315,-0.0735 c -0.8925,0.252 -1.365,0.357 -1.953,0.4095 v 0.336 c 0.6405,0.0735 0.7035,-0.0525 0.7035,0.735 v 2.3205 c 0,0.735 -0.1575,0.651 -0.7455,0.7035 z"
         style="font-style:normal;font-variant:normal;font-weight:bold;font-stretch:normal;font-size:10.5px;font-family:KpRoman;-inkscape-font-specification:'KpRoman Bold';stroke-width:0.75"
         id="path2027" /><path
         d="m 202.36855,-13.125017 c 0,1.407 0.84,2.394 2.3205,2.4045 0.7035,0 1.5645,-0.4935 1.701,-0.9975 l -0.1575,-0.1785 c -0.3675,0.252 -0.6405,0.336 -1.008,0.336 -0.756,0 -1.575,-0.6195 -1.575,-1.995 0,-1.05 0.441,-1.491 0.9765,-1.491 0.3465,0 0.672,0.147 0.8295,0.357 l 0.2205,0.4515 c 0,0 0.2835,0.0525 0.2835,0.042 0.126,-0.3255 0.315,-1.0605 0.315,-1.0605 -0.336,-0.3675 -0.8925,-0.462 -1.134,-0.462 -1.3545,0 -2.772,1.2075 -2.772,2.5935 z"
         style="font-style:normal;font-variant:normal;font-weight:bold;font-stretch:normal;font-size:10.5px;font-family:KpRoman;-inkscape-font-specification:'KpRoman Bold';stroke-width:0.75"
         id="path2029" /><path
         d="m 207.05154,-10.857017 c 0,0 0.861,-0.021 1.491,-0.021 0.4095,0 0.8085,0.0105 1.155,0.021 v -0.357 c -0.546,-0.0735 -0.6195,-0.0105 -0.6195,-0.7035 v -2.4255 c 0.126,-0.3045 0.4935,-0.5355 0.8715,-0.5355 0.567,0 0.8925,0.315 0.8925,1.071 v 1.89 c 0,0.3045 -0.021,0.7245 -0.273,0.756 v 0.3045 c 0,0 0.5355,-0.0105 0.966,-0.0105 0.441,0 0.8925,0 1.2705,0.0105 v -0.357 c -0.567,-0.063 -0.6825,0.0105 -0.6825,-0.7035 v -2.037 c 0,-1.155 -0.504,-1.7325 -1.407,-1.7325 -0.567,0 -1.2705,0.3675 -1.638,0.735 v -3.339 l -0.126,-0.21 c -0.693,0.315 -1.197,0.441 -1.869,0.5355 v 0.336 c 0.6405,0.042 0.714,-0.0315 0.714,0.7245 v 4.9875 c 0,0.735 -0.1575,0.651 -0.7455,0.7035 z"
         style="font-style:normal;font-variant:normal;font-weight:bold;font-stretch:normal;font-size:10.5px;font-family:KpRoman;-inkscape-font-specification:'KpRoman Bold';stroke-width:0.75"
         id="path2031" /></g></g></svg>
